<svg width="101" height="100" viewBox="0 0 101 100" fill="none" xmlns="http://www.w3.org/2000/svg">
<mask id="mask0_1_102889" style="mask-type:alpha" maskUnits="userSpaceOnUse" x="9" y="9" width="83" height="82">
<circle cx="50.5" cy="50" r="40.7407" fill="#636366"/>
</mask>
<g mask="url(#mask0_1_102889)">
<rect x="9.75928" y="9.25928" width="81.4815" height="81.4815" rx="7.40741" fill="#FCFCFC" fill-opacity="0.08"/>
<path d="M37.12 49.24C36.2 49.24 35.4133 49.06 34.76 48.7C34.1067 48.34 33.5933 47.86 33.22 47.26C32.86 46.66 32.64 46.0067 32.56 45.3H34.54C34.66 45.9933 34.9467 46.5267 35.4 46.9C35.8533 47.2733 36.4333 47.46 37.14 47.46C38.1133 47.46 38.9133 47.0067 39.54 46.1C40.18 45.18 40.52 43.7733 40.56 41.88C40.24 42.4667 39.74 42.9667 39.06 43.38C38.3933 43.7933 37.62 44 36.74 44C35.9533 44 35.2133 43.8133 34.52 43.44C33.8267 43.0667 33.2667 42.5467 32.84 41.88C32.4133 41.2 32.2 40.4 32.2 39.48C32.2 38.6667 32.4 37.9 32.8 37.18C33.2 36.46 33.76 35.88 34.48 35.44C35.2133 34.9867 36.08 34.76 37.08 34.76C38.1067 34.76 38.9733 34.9533 39.68 35.34C40.3867 35.7267 40.9533 36.24 41.38 36.88C41.8067 37.52 42.1133 38.24 42.3 39.04C42.5 39.84 42.6 40.66 42.6 41.5C42.6 43.0467 42.38 44.4 41.94 45.56C41.5133 46.72 40.8933 47.6267 40.08 48.28C39.2667 48.92 38.28 49.24 37.12 49.24ZM37.22 42.18C37.78 42.18 38.28 42.0533 38.72 41.8C39.16 41.5467 39.5067 41.2133 39.76 40.8C40.0267 40.3733 40.16 39.9067 40.16 39.4C40.16 38.8533 40.0267 38.3733 39.76 37.96C39.5067 37.5333 39.1533 37.2 38.7 36.96C38.26 36.72 37.76 36.6 37.2 36.6C36.64 36.6 36.14 36.72 35.7 36.96C35.26 37.2 34.9067 37.5333 34.64 37.96C34.3867 38.3733 34.26 38.8467 34.26 39.38C34.26 40.2333 34.54 40.9133 35.1 41.42C35.66 41.9267 36.3667 42.18 37.22 42.18ZM45.1112 49.12C44.7112 49.12 44.3779 48.9933 44.1112 48.74C43.8579 48.4733 43.7312 48.16 43.7312 47.8C43.7312 47.4267 43.8579 47.1133 44.1112 46.86C44.3779 46.5933 44.7112 46.46 45.1112 46.46C45.5112 46.46 45.8379 46.5933 46.0912 46.86C46.3446 47.1133 46.4712 47.4267 46.4712 47.8C46.4712 48.16 46.3446 48.4733 46.0912 48.74C45.8379 48.9933 45.5112 49.12 45.1112 49.12ZM48.3072 49V47.48C49.2139 46.76 50.0805 46.0333 50.9072 45.3C51.7339 44.5667 52.4672 43.8467 53.1072 43.14C53.7605 42.42 54.2739 41.72 54.6472 41.04C55.0205 40.3467 55.2072 39.68 55.2072 39.04C55.2072 38.6133 55.1339 38.2133 54.9872 37.84C54.8405 37.4533 54.6005 37.1467 54.2672 36.92C53.9339 36.68 53.4872 36.56 52.9272 36.56C52.0872 36.56 51.4539 36.8267 51.0272 37.36C50.6139 37.8933 50.4139 38.5333 50.4272 39.28H48.3672C48.3805 38.2933 48.5872 37.4667 48.9872 36.8C49.4005 36.1333 49.9472 35.6267 50.6272 35.28C51.3205 34.9333 52.1005 34.76 52.9672 34.76C54.2872 34.76 55.3405 35.1333 56.1272 35.88C56.9272 36.6133 57.3272 37.64 57.3272 38.96C57.3272 39.7467 57.1339 40.5267 56.7472 41.3C56.3739 42.0733 55.8805 42.82 55.2672 43.54C54.6672 44.2467 54.0205 44.9133 53.3272 45.54C52.6339 46.1667 51.9739 46.7333 51.3472 47.24H57.7472V49H48.3072ZM64.4125 49.24C63.5058 49.24 62.6792 49.08 61.9325 48.76C61.1992 48.4267 60.6125 47.9267 60.1725 47.26C59.7325 46.5933 59.4992 45.76 59.4725 44.76H61.5725C61.5992 45.5067 61.8525 46.14 62.3325 46.66C62.8258 47.1667 63.5192 47.42 64.4125 47.42C65.2658 47.42 65.9192 47.1867 66.3725 46.72C66.8258 46.24 67.0525 45.6467 67.0525 44.94C67.0525 44.0867 66.7458 43.4533 66.1325 43.04C65.5325 42.6267 64.7925 42.42 63.9125 42.42H62.8725V40.66H63.9325C64.7192 40.66 65.3525 40.4733 65.8325 40.1C66.3258 39.7267 66.5725 39.2 66.5725 38.52C66.5725 37.9467 66.3792 37.48 65.9925 37.12C65.6192 36.76 65.0858 36.58 64.3925 36.58C63.6725 36.58 63.1058 36.7933 62.6925 37.22C62.2792 37.6333 62.0525 38.1533 62.0125 38.78H59.9125C59.9392 37.9667 60.1392 37.26 60.5125 36.66C60.8992 36.06 61.4258 35.5933 62.0925 35.26C62.7592 34.9267 63.5258 34.76 64.3925 34.76C65.3258 34.76 66.1058 34.9267 66.7325 35.26C67.3725 35.58 67.8525 36.02 68.1725 36.58C68.5058 37.1267 68.6725 37.7267 68.6725 38.38C68.6725 39.1267 68.4658 39.78 68.0525 40.34C67.6392 40.9 67.0858 41.2733 66.3925 41.46C67.1925 41.6333 67.8525 42.0267 68.3725 42.64C68.8925 43.24 69.1525 44.02 69.1525 44.98C69.1525 45.7533 68.9725 46.4667 68.6125 47.12C68.2525 47.76 67.7192 48.2733 67.0125 48.66C66.3058 49.0467 65.4392 49.24 64.4125 49.24Z" fill="#D0D0D0"/>
<path fill-rule="evenodd" clip-rule="evenodd" d="M34.1917 58.1401C34.4903 57.4221 35.509 57.4221 35.8077 58.1401L37.1957 61.4781L40.7983 61.7667C41.5743 61.8287 41.889 62.7967 41.2977 63.3034L38.553 65.6547L39.391 69.1701C39.5717 69.9274 38.7483 70.5254 38.0843 70.1201L34.9997 68.2361L31.915 70.1201C31.251 70.5254 30.4277 69.9267 30.6083 69.1701L31.4463 65.6547L28.7017 63.3034C28.1103 62.7967 28.425 61.8287 29.201 61.7667L32.8037 61.4781L34.1917 58.1401Z" fill="white"/>
<path fill-rule="evenodd" clip-rule="evenodd" d="M50.1917 58.1401C50.4903 57.4221 51.509 57.4221 51.8077 58.1401L53.1957 61.4781L56.7983 61.7667C57.5743 61.8287 57.889 62.7967 57.2977 63.3034L54.553 65.6547L55.391 69.1701C55.5717 69.9274 54.7483 70.5254 54.0843 70.1201L50.9997 68.2361L47.915 70.1201C47.251 70.5254 46.4277 69.9267 46.6083 69.1701L47.4463 65.6547L44.7017 63.3034C44.1103 62.7967 44.425 61.8287 45.201 61.7667L48.8037 61.4781L50.1917 58.1401Z" fill="white"/>
<path fill-rule="evenodd" clip-rule="evenodd" d="M66.1917 58.1401C66.4903 57.4221 67.509 57.4221 67.8077 58.1401L69.1957 61.4781L72.7983 61.7667C73.5743 61.8287 73.889 62.7967 73.2977 63.3034L70.553 65.6547L71.391 69.1701C71.5717 69.9274 70.7483 70.5254 70.0843 70.1201L66.9997 68.2361L63.915 70.1201C63.251 70.5254 62.4277 69.9267 62.6083 69.1701L63.4463 65.6547L60.7017 63.3034C60.1103 62.7967 60.425 61.8287 61.201 61.7667L64.8037 61.4781L66.1917 58.1401Z" fill="white"/>
</g>
<circle cx="50.5" cy="50" r="48.1482" stroke="#202329" stroke-width="3.7037"/>
<path d="M50.5 1.85185C60.0228 1.85185 69.3318 4.67569 77.2497 9.96628C85.1676 15.2569 91.3389 22.7766 94.9831 31.5745C98.6273 40.3724 99.5808 50.0534 97.723 59.3932C95.8652 68.7331 91.2795 77.3122 84.5459 84.0459C77.8122 90.7795 69.2331 95.3652 59.8932 97.223C50.5534 99.0808 40.8724 98.1273 32.0745 94.4831C23.2766 90.8389 15.7569 84.6676 10.4663 76.7497C5.17569 68.8318 2.35185 59.5228 2.35185 50" stroke="url(#paint0_linear_1_102889)" stroke-width="3.7037" stroke-linecap="round"/>
<defs>
<linearGradient id="paint0_linear_1_102889" x1="0.499974" y1="50" x2="-0.983847" y2="1.66578" gradientUnits="userSpaceOnUse">
<stop stop-color="#2551EB"/>
<stop offset="1" stop-color="#2898FF"/>
</linearGradient>
</defs>
</svg>
