<svg width="16" height="16" viewBox="0 0 16 16" fill="none" xmlns="http://www.w3.org/2000/svg">
<path fill-rule="evenodd" clip-rule="evenodd" d="M2.52807 1.95867C4.33599 1.65269 6.16643 1.49926 8.00007 1.5C9.86473 1.5 11.6934 1.65734 13.4727 1.95867C13.761 2.00844 14.0223 2.15867 14.2103 2.38272C14.3984 2.60677 14.501 2.89016 14.5001 3.18267V3.87867C14.5 4.40906 14.2892 4.91768 13.9141 5.29267L9.79273 9.414C9.69989 9.50691 9.62625 9.61719 9.57604 9.73856C9.52582 9.85992 9.50001 9.98999 9.50007 10.1213V12.0727C9.50018 12.4441 9.39682 12.8083 9.20159 13.1244C9.00636 13.4404 8.72697 13.6958 8.39473 13.862L7.2234 14.4473C7.14717 14.4854 7.06248 14.5033 6.97737 14.4995C6.89225 14.4956 6.80954 14.47 6.73708 14.4252C6.66461 14.3804 6.6048 14.3178 6.56332 14.2434C6.52184 14.169 6.50007 14.0852 6.50007 14V10.1213C6.49983 9.85621 6.39432 9.60203 6.20673 9.41467L2.08673 5.292C1.71163 4.91702 1.50085 4.40839 1.50073 3.878V3.18267C1.50073 2.58467 1.92673 2.06067 2.52807 1.95867Z" fill="#D0D0D0"/>
</svg>
