<svg width="16" height="16" viewBox="0 0 16 16" fill="none" xmlns="http://www.w3.org/2000/svg">
<path d="M9.90499 11.3875C11.1471 11.2404 12.3676 10.9473 13.541 10.5142C12.5472 9.41338 11.9981 7.98251 12.0003 6.49951V6.03285V5.99951C12.0003 4.93865 11.5789 3.92123 10.8287 3.17108C10.0786 2.42094 9.06118 1.99951 8.00032 1.99951C6.93945 1.99951 5.92204 2.42094 5.17189 3.17108C4.42175 3.92123 4.00032 4.93865 4.00032 5.99951V6.49951C4.00233 7.9826 3.45298 9.41348 2.45898 10.5142C3.61432 10.9408 4.83232 11.2375 6.09565 11.3875M9.90499 11.3875C8.63964 11.5376 7.36099 11.5376 6.09565 11.3875M9.90499 11.3875C10.0011 11.6874 10.0249 12.0058 9.97471 12.3167C9.92448 12.6275 9.80154 12.9222 9.6159 13.1766C9.43027 13.431 9.18719 13.6379 8.90645 13.7806C8.6257 13.9233 8.31524 13.9976 8.00032 13.9976C7.6854 13.9976 7.37493 13.9233 7.09419 13.7806C6.81345 13.6379 6.57037 13.431 6.38473 13.1766C6.1991 12.9222 6.07616 12.6275 6.02593 12.3167C5.97569 12.0058 5.99958 11.6874 6.09565 11.3875" stroke="#D0D0D0" stroke-width="1.5" stroke-linecap="round" stroke-linejoin="round"/>
</svg>
