<svg width="14" height="14" viewBox="0 0 14 14" fill="none" xmlns="http://www.w3.org/2000/svg">
<path d="M11.25 7.49284L6.12135 12.6215C5.55874 13.1841 4.79567 13.5002 4.00002 13.5002C3.20436 13.5002 2.4413 13.1841 1.87869 12.6215C1.31607 12.0589 1 11.2958 1 10.5002C1 9.70452 1.31607 8.94145 1.87869 8.37884L9.17202 1.0855C9.3578 0.899814 9.57833 0.752534 9.82102 0.652074C10.0637 0.551613 10.3238 0.499938 10.5865 0.5C10.8492 0.500062 11.1092 0.551859 11.3519 0.652434C11.5945 0.753009 11.815 0.900393 12.0007 1.08617C12.1864 1.27195 12.3337 1.49248 12.4341 1.73517C12.5346 1.97787 12.5862 2.23797 12.5862 2.50064C12.5861 2.76331 12.5343 3.02339 12.4338 3.26604C12.3332 3.50868 12.1858 3.72915 12 3.91484L4.70135 11.2135C4.51201 11.395 4.25893 11.4942 3.99665 11.4909C3.73437 11.4876 3.4839 11.3813 3.29922 11.1951C3.11453 11.0088 3.01042 10.7574 3.00933 10.4952C3.00823 10.2329 3.11023 9.98063 3.29335 9.79284L8.50002 4.58617M4.70735 11.2068L4.70068 11.2135" stroke="#FCFCFC" stroke-opacity="0.46" stroke-linecap="round" stroke-linejoin="round"/>
</svg>
